<?xml version="1.0" encoding="utf-8"?>
<!-- Generator: Adobe Illustrator 19.0.0, SVG Export Plug-In . SVG Version: 6.00 Build 0)  -->
<!DOCTYPE svg PUBLIC "-//W3C//DTD SVG 1.1//EN" "http://www.w3.org/Graphics/SVG/1.1/DTD/svg11.dtd">
<svg version="1.1" id="Layer_1" xmlns="http://www.w3.org/2000/svg" xmlns:xlink="http://www.w3.org/1999/xlink" x="0px" y="0px"
	 viewBox="0 0 936.1 115.2" style="enable-background:new 0 0 936.1 115.2;" xml:space="preserve">
<style type="text/css">
	.st0{fill:#FFFFFF;}
</style>
<g>
	<path class="st0" d="M211.2,23.9c-3.5-4.6-9.1-7.1-14.8-7.1c-10.3,0-17.3,7.9-17.3,17.9c0,10.2,7.1,17.6,17.6,17.6
		c5.5,0,11-2.7,14.6-6.9v20.1c-5.6,1.7-9.7,3-14.9,3c-9,0-17.7-3.4-24.4-9.5c-7.2-6.4-10.4-14.8-10.4-24.4c0-8.8,3.4-17.3,9.6-23.6
		c6.4-6.5,15.6-10.4,24.7-10.4c5.4,0,10.4,1.2,15.4,3.3V23.9z"/>
	<path class="st0" d="M288.8,33.4c0,20.8-15.1,35.5-36.1,35.5c-20.9,0-36.1-14.7-36.1-35.5c0-19.5,17.3-33.2,36.1-33.2
		C271.5,0.2,288.8,13.9,288.8,33.4z M234.3,33.5c0,11.1,8.3,19.2,18.4,19.2c10.1,0,18.4-8.1,18.4-19.2c0-8.9-8.3-17-18.4-17
		C242.6,16.5,234.3,24.6,234.3,33.5z"/>
	<path class="st0" d="M497,33.1c0,20.8-15.1,35.5-36.1,35.5c-20.9,0-36.1-14.7-36.1-35.5c0-19.5,17.3-33.1,36.1-33.1
		C479.7,0,497,13.7,497,33.1z M442.5,33.2c0,11.1,8.3,19.2,18.4,19.2c10.1,0,18.4-8.1,18.4-19.2c0-8.9-8.3-17-18.4-17
		C450.8,16.2,442.5,24.4,442.5,33.2z"/>
	<path class="st0" d="M294.5,2.2h16.9l31,39.2h0.2V2.2h16.9v64.1h-16.9l-31-39.3h-0.2v39.3h-16.9V2.2z"/>
	<path class="st0" d="M409.2,18.9c-3.6-2.6-8.1-4.3-12.9-4.3c-3.6,0-8.3,1.8-8.3,5.4c0,3.8,5.3,5.2,8.6,6.1l5,1.3
		c10.4,2.6,18.5,7.2,18.5,17.6c0,6.4-1.8,13-7.7,17.3c-5.9,4.3-13.7,6.1-21.2,6.1c-9.4,0-18.7-2.7-26.3-7.3l8.3-13.5
		c4.9,3.7,10.6,6.6,17.3,6.6c4.6,0,9.4-2,9.4-6.5c0-4.7-7.6-6.3-11.8-7.3c-12.2-3-20.2-5.7-20.2-18.2c0-13,10.8-21.6,25.8-21.6
		c7.5,0,16.8,2,23.4,5.3L409.2,18.9z"/>
	<path class="st0" d="M524,52.3h24.3v14.2h-44.5V2.2H524V52.3z"/>
	<g>
		<path class="st0" d="M924.7,56.9c2.6,0,4.7,2.1,4.7,4.8c0,2.7-2.1,4.9-4.8,4.9c-2.6,0-4.8-2.1-4.8-4.9
			C919.9,59,922.1,56.9,924.7,56.9L924.7,56.9z M924.7,57.6c-2.1,0-3.9,1.8-3.9,4.1c0,2.3,1.7,4.1,3.9,4.1c2.1,0,3.9-1.8,3.9-4.1
			C928.6,59.4,926.9,57.6,924.7,57.6L924.7,57.6z M923.8,64.5H923v-5.4c0.5-0.1,0.9-0.1,1.5-0.1c0.8,0,1.4,0.2,1.7,0.4
			c0.3,0.2,0.5,0.6,0.5,1.1c0,0.7-0.5,1.1-1.1,1.3v0c0.5,0.1,0.8,0.5,0.9,1.3c0.1,0.8,0.3,1.2,0.3,1.3h-0.9
			c-0.1-0.2-0.3-0.7-0.4-1.4c-0.1-0.7-0.5-0.9-1.2-0.9h-0.6V64.5z M923.8,61.5h0.6c0.7,0,1.3-0.3,1.3-0.9c0-0.5-0.3-0.9-1.3-0.9
			c-0.3,0-0.5,0-0.6,0V61.5z"/>
	</g>
	<path class="st0" d="M622.3,2.5h17l31.1,39.4h0.2V2.5h17v64.4h-17l-31.1-39.4h-0.2v39.4h-17V2.5z"/>
	<path class="st0" d="M810.2,66.9h-21.3l-16.2-24.8h-0.2v24.8h-17.1V2.5H781c13,0,22.9,6.1,22.9,19.8c0,8.9-5.1,16.6-14.4,18.2
		L810.2,66.9z M772.6,31.4h1.7c5.6,0,11.9-1,11.9-8c0-7-6.3-8-11.9-8h-1.7V31.4z"/>
	<path class="st0" d="M876.8,30.9c-0.2,9.4-0.9,17.4-6.7,25.4c-6.5,8.8-16.2,12.6-27.2,12.6c-20.7,0-35.1-13.7-35.1-34
		c0-20.9,14.5-34.7,35.8-34.7c13.5,0,24,6,29.7,18L857,25c-2.4-6.1-7.3-10.2-14.2-10.2c-11.3,0-17.1,10.5-17.1,20.3
		c0,10,6.1,20.1,17.4,20.1c7.4,0,13.1-3.8,13.8-11.2h-14V30.9H876.8z"/>
	<path class="st0" d="M869.9,2.5h20.7L903,20l12.4-17.5h20.7L911.6,36v30.9h-17.2V36L869.9,2.5z"/>
	<path class="st0" d="M598.2,16.8c5.8,0,11.4,2.5,14.8,7.1V3.8c-5-2.1-10-3.3-15.4-3.3c-9.1,0-18.4,3.9-24.7,10.4
		c-6.2,6.3-9.6,14.8-9.6,23.6c0,9.6,3.3,18,10.4,24.4c6.7,6.1,15.3,9.5,24.4,9.5c5.3,0,9.3-1.3,14.9-3V45.4
		c-3.5,4.2-9.1,6.9-14.6,6.9c-8,0-14-4.3-16.4-10.8h31V28.5h-31.1C584.1,21.6,590.1,16.8,598.2,16.8z"/>
	<path class="st0" d="M730.2,16.6c5.8,0,11.4,2.5,14.8,7.1V3.6c-5-2.1-10-3.3-15.4-3.3c-9.1,0-18.4,3.9-24.7,10.4
		c-6.2,6.3-9.6,14.8-9.6,23.6c0,9.6,3.3,18,10.4,24.4c6.7,6.1,15.3,9.5,24.4,9.5c5.3,0,9.3-1.3,14.9-3V45.2c-3.5,4.2-9,6.9-14.6,6.9
		c-7.9,0-13.9-4.2-16.4-10.7H745V28.5h-31.2C716,21.5,722.1,16.6,730.2,16.6z"/>
	<polygon class="st0" points="114.5,19.2 114.5,24.2 137.6,24.8 140.3,18.5 	"/>
	<polygon class="st0" points="114.5,36.6 132.4,37 135,30.8 114.5,31.3 	"/>
	<polygon class="st0" points="10.7,21.8 38.6,22.5 38.6,21.1 	"/>
	<polygon class="st0" points="5.5,34.1 38.6,34.8 38.6,33.2 	"/>
	<polygon class="st0" points="0,46.7 38.6,47.6 38.6,45.8 	"/>
	<path class="st0" d="M38.6,31.5c0.3-3.1,1-6.1,2.1-8.9l-2.1,0V31.5z"/>
	<path class="st0" d="M49.3,10.1c5.4-5,12.6-8.5,20.3-9.9h-31v21l2.7-0.1C43.1,17,45.8,13.3,49.3,10.1z"/>
	<path class="st0" d="M38.6,37.1v8.7l1.9,0C39.4,43,38.8,40.1,38.6,37.1z"/>
	<path class="st0" d="M50.3,59c-2.2-1.8-4.1-3.8-5.7-5.9c-1.3-1.7-2.4-3.6-3.3-5.5l-2.7-0.1v5.5v15.4h35.8
		C65.4,67.9,57,64.5,50.3,59z"/>
	<path class="st0" d="M78,16c-5.3,0-9.9,1.7-13.3,4.5L91,19.8C87.3,17.3,82.7,16,78,16z"/>
	<path class="st0" d="M114.5,0.1h-29c3.2,0.6,6.2,1.4,9.3,2.6v17l19.7-0.5V0.1z"/>
	<path class="st0" d="M114.5,24.2L62.2,23c-2.2,2.7-3.5,6-3.8,9.7l56.1-1.4V24.2z"/>
	<path class="st0" d="M94.8,49v4.2v12.5c-5.2,1.4-9.2,2.5-13.7,2.9h33.4V53.2v-3.8L94.8,49z"/>
	<path class="st0" d="M114.5,36.6l-56.1-1.3c0.2,3.8,1.5,7.2,3.7,9.9l52.4-1.3V36.6z"/>
	<path class="st0" d="M78.3,52.1c4.2,0,8.3-1.2,11.9-3.3l-24.8-0.6C68.7,50.7,73.1,52.1,78.3,52.1z"/>
	<polygon class="st0" points="114.5,49.4 126.9,49.7 129.6,43.5 114.5,43.8 	"/>
	<g>
		<path class="st0" d="M292.2,105.8h-13.3l-3.5,7.5h-5l15.3-33l14.8,33h-5.1L292.2,105.8z M290.2,101.4l-4.6-10.5l-4.8,10.5H290.2z"
			/>
		<path class="st0" d="M303.3,113.3l6.5-33.3l10.6,24.1l11-24.1l5.9,33.3h-4.8l-3-18.7l-9.2,20.1l-8.9-20.2l-3.3,18.7H303.3z"/>
		<path class="st0" d="M359,86.7h-12.4v7.5h12.1v4.4h-12.1v10.4H359v4.4h-17.1v-31H359V86.7z"/>
		<path class="st0" d="M374.6,100.1l9.6,13.2h-5.7l-8.9-12.7h-0.8v12.7h-4.7v-31h5.5c4.1,0,7.1,0.8,8.9,2.3c2,1.7,3,4,3,6.8
			c0,2.2-0.6,4.1-1.9,5.7C378.4,98.6,376.7,99.6,374.6,100.1z M368.8,96.5h1.5c4.4,0,6.6-1.7,6.6-5.1c0-3.2-2.2-4.8-6.5-4.8h-1.7
			V96.5z"/>
		<path class="st0" d="M392.6,82.3v31h-4.7v-31H392.6z"/>
		<path class="st0" d="M421.9,83.9v5.5c-2.7-2.3-5.5-3.4-8.4-3.4c-3.2,0-5.9,1.1-8.1,3.4c-2.2,2.3-3.3,5.1-3.3,8.4
			c0,3.3,1.1,6,3.3,8.2c2.2,2.2,4.9,3.4,8.1,3.4c1.6,0,3-0.3,4.2-0.8c0.6-0.3,1.3-0.6,2-1.1c0.7-0.5,1.4-1,2.2-1.6v5.7
			c-2.7,1.5-5.5,2.3-8.4,2.3c-4.4,0-8.2-1.5-11.3-4.6c-3.1-3.1-4.7-6.9-4.7-11.3c0-4,1.3-7.5,3.9-10.6c3.2-3.8,7.4-5.7,12.5-5.7
			C416.6,81.7,419.3,82.4,421.9,83.9z"/>
		<path class="st0" d="M445.7,105.8h-13.3l-3.5,7.5h-5l15.3-33l14.8,33H449L445.7,105.8z M443.8,101.4l-4.6-10.5l-4.8,10.5H443.8z"
			/>
		<path class="st0" d="M455.8,81.5l4,1.6l-5.7,11.5l-3.1-1.3L455.8,81.5z"/>
		<path class="st0" d="M480.1,86.9l-3.8,2.3c-0.7-1.2-1.4-2-2-2.4c-0.7-0.4-1.5-0.6-2.6-0.6c-1.3,0-2.4,0.4-3.2,1.1
			c-0.9,0.7-1.3,1.6-1.3,2.7c0,1.5,1.1,2.7,3.4,3.7l3.1,1.3c2.5,1,4.4,2.3,5.5,3.7c1.2,1.5,1.7,3.3,1.7,5.4c0,2.9-1,5.2-2.9,7.1
			c-1.9,1.9-4.3,2.8-7.1,2.8c-2.7,0-4.9-0.8-6.7-2.4c-1.7-1.6-2.8-3.8-3.2-6.7l4.7-1c0.2,1.8,0.6,3.1,1.1,3.8c1,1.3,2.4,2,4.2,2
			c1.5,0,2.7-0.5,3.6-1.5c1-1,1.4-2.2,1.4-3.7c0-0.6-0.1-1.2-0.3-1.7c-0.2-0.5-0.4-1-0.8-1.4c-0.4-0.4-0.8-0.8-1.4-1.2
			c-0.6-0.4-1.2-0.7-2-1.1l-3-1.2c-4.2-1.8-6.4-4.4-6.4-7.9c0-2.3,0.9-4.3,2.7-5.8c1.8-1.6,4-2.4,6.6-2.4
			C475.3,81.7,478.1,83.4,480.1,86.9z"/>
		<path class="st0" d="M519.9,86.7h-12.4v7.5h12.1v4.4h-12.1v10.4h12.4v4.4h-17.1v-31h17.1V86.7z"/>
		<path class="st0" d="M525.1,113.3V80.2l22.6,23.7V82.3h4.7v32.9l-22.6-23.6v21.7H525.1z"/>
		<path class="st0" d="M574.9,86.7h-12.4v7.5h12.1v4.4h-12.1v10.4h12.4v4.4h-17.1v-31h17.1V86.7z"/>
		<path class="st0" d="M590.5,100.1l9.6,13.2h-5.7l-8.9-12.7h-0.8v12.7H580v-31h5.5c4.1,0,7.1,0.8,8.9,2.3c2,1.7,3,4,3,6.8
			c0,2.2-0.6,4.1-1.9,5.7C594.2,98.6,592.5,99.6,590.5,100.1z M584.7,96.5h1.5c4.4,0,6.6-1.7,6.6-5.1c0-3.2-2.2-4.8-6.5-4.8h-1.7
			V96.5z"/>
		<path class="st0" d="M617.8,97.1h12.8v1c0,2.3-0.3,4.4-0.8,6.2c-0.5,1.7-1.4,3.2-2.7,4.7c-2.9,3.2-6.5,4.9-11,4.9
			c-4.3,0-8.1-1.6-11.1-4.7c-3.1-3.1-4.6-6.9-4.6-11.3c0-4.5,1.6-8.3,4.7-11.4c3.1-3.1,7-4.7,11.5-4.7c2.4,0,4.7,0.5,6.8,1.5
			c2,1,4,2.6,5.9,4.8l-3.3,3.2c-2.5-3.4-5.6-5.1-9.3-5.1c-3.3,0-6,1.1-8.3,3.4c-2.2,2.2-3.3,5-3.3,8.4c0,3.5,1.2,6.3,3.7,8.5
			c2.3,2.1,4.8,3.1,7.5,3.1c2.3,0,4.4-0.8,6.2-2.3c1.8-1.6,2.9-3.4,3.1-5.6h-7.7V97.1z"/>
		<path class="st0" d="M640.7,99.9l-10.1-17.6h5.4l7.1,12.4l7.1-12.4h5.4l-10.2,17.6v13.4h-4.7V99.9z"/>
		<path class="st0" d="M688.7,86.9l-3.8,2.3c-0.7-1.2-1.4-2-2-2.4c-0.7-0.4-1.5-0.6-2.6-0.6c-1.3,0-2.4,0.4-3.2,1.1
			c-0.9,0.7-1.3,1.6-1.3,2.7c0,1.5,1.1,2.7,3.4,3.7l3.1,1.3c2.5,1,4.4,2.3,5.5,3.7c1.2,1.5,1.7,3.3,1.7,5.4c0,2.9-1,5.2-2.9,7.1
			c-1.9,1.9-4.3,2.8-7.1,2.8c-2.7,0-4.9-0.8-6.7-2.4c-1.7-1.6-2.8-3.8-3.2-6.7l4.7-1c0.2,1.8,0.6,3.1,1.1,3.8c1,1.3,2.4,2,4.2,2
			c1.5,0,2.7-0.5,3.6-1.5c1-1,1.4-2.2,1.4-3.7c0-0.6-0.1-1.2-0.3-1.7c-0.2-0.5-0.4-1-0.8-1.4c-0.4-0.4-0.8-0.8-1.4-1.2
			c-0.6-0.4-1.2-0.7-2-1.1l-3-1.2c-4.2-1.8-6.4-4.4-6.4-7.9c0-2.3,0.9-4.3,2.7-5.8c1.8-1.6,4-2.4,6.6-2.4
			C683.9,81.7,686.7,83.4,688.7,86.9z"/>
		<path class="st0" d="M703.3,86.7v26.6h-4.7V86.7h-7.1v-4.4h18.9v4.4H703.3z"/>
		<path class="st0" d="M729.1,105.8h-13.3l-3.5,7.5h-5l15.3-33l14.8,33h-5.1L729.1,105.8z M727.1,101.4l-4.6-10.5l-4.8,10.5H727.1z"
			/>
		<path class="st0" d="M750.8,100.1l9.6,13.2h-5.7l-8.9-12.7H745v12.7h-4.7v-31h5.5c4.1,0,7.1,0.8,8.9,2.3c2,1.7,3,4,3,6.8
			c0,2.2-0.6,4.1-1.9,5.7C754.5,98.6,752.8,99.6,750.8,100.1z M745,96.5h1.5c4.4,0,6.6-1.7,6.6-5.1c0-3.2-2.2-4.8-6.5-4.8H745V96.5z
			"/>
		<path class="st0" d="M772.2,86.7v26.6h-4.7V86.7h-7.1v-4.4h18.9v4.4H772.2z"/>
		<path class="st0" d="M800,86.9l-3.8,2.3c-0.7-1.2-1.4-2-2-2.4c-0.7-0.4-1.5-0.6-2.6-0.6c-1.3,0-2.4,0.4-3.2,1.1
			c-0.9,0.7-1.3,1.6-1.3,2.7c0,1.5,1.1,2.7,3.4,3.7l3.1,1.3c2.5,1,4.4,2.3,5.5,3.7c1.2,1.5,1.7,3.3,1.7,5.4c0,2.9-1,5.2-2.9,7.1
			c-1.9,1.9-4.3,2.8-7.1,2.8c-2.7,0-4.9-0.8-6.7-2.4c-1.7-1.6-2.8-3.8-3.2-6.7l4.7-1c0.2,1.8,0.6,3.1,1.1,3.8c1,1.3,2.4,2,4.2,2
			c1.5,0,2.7-0.5,3.6-1.5c1-1,1.4-2.2,1.4-3.7c0-0.6-0.1-1.2-0.3-1.7c-0.2-0.5-0.4-1-0.8-1.4c-0.4-0.4-0.8-0.8-1.4-1.2
			c-0.6-0.4-1.2-0.7-2-1.1l-3-1.2c-4.2-1.8-6.4-4.4-6.4-7.9c0-2.3,0.9-4.3,2.7-5.8c1.8-1.6,4-2.4,6.6-2.4
			C795.2,81.7,798,83.4,800,86.9z"/>
		<path class="st0" d="M824.2,94.4h13.4V82.3h4.7v31h-4.7V98.8h-13.4v14.5h-4.7v-31h4.7V94.4z"/>
		<path class="st0" d="M864.7,86.7h-12.4v7.5h12.1v4.4h-12.1v10.4h12.4v4.4h-17.1v-31h17.1V86.7z"/>
		<path class="st0" d="M880.4,100.1l9.6,13.2h-5.7l-8.9-12.7h-0.8v12.7h-4.7v-31h5.5c4.1,0,7.1,0.8,8.9,2.3c2,1.7,3,4,3,6.8
			c0,2.2-0.6,4.1-1.9,5.7C884.1,98.6,882.4,99.6,880.4,100.1z M874.5,96.5h1.5c4.4,0,6.6-1.7,6.6-5.1c0-3.2-2.2-4.8-6.5-4.8h-1.7
			V96.5z"/>
		<path class="st0" d="M910.7,86.7h-12.4v7.5h12.1v4.4h-12.1v10.4h12.4v4.4h-17.1v-31h17.1V86.7z"/>
		<path class="st0" d="M915.1,111.1c0-0.6,0.2-1.1,0.6-1.5c0.4-0.4,1-0.7,1.6-0.7c0.6,0,1.1,0.2,1.6,0.7c0.4,0.4,0.6,0.9,0.6,1.6
			c0,0.6-0.2,1.1-0.6,1.6c-0.4,0.4-0.9,0.6-1.6,0.6c-0.6,0-1.1-0.2-1.6-0.6C915.3,112.2,915.1,111.7,915.1,111.1z"/>
	</g>
</g>
</svg>
