<?xml version="1.0" encoding="utf-8"?>
<!-- Generator: Adobe Illustrator 19.0.0, SVG Export Plug-In . SVG Version: 6.00 Build 0)  -->
<!DOCTYPE svg PUBLIC "-//W3C//DTD SVG 1.1//EN" "http://www.w3.org/Graphics/SVG/1.1/DTD/svg11.dtd">
<svg version="1.1" id="Layer_1" xmlns="http://www.w3.org/2000/svg" xmlns:xlink="http://www.w3.org/1999/xlink" x="0px" y="0px"
	 viewBox="0 0 33 25.3" style="enable-background:new 0 0 33 25.3;" xml:space="preserve">
<style type="text/css">
	.st0{fill-rule:evenodd;clip-rule:evenodd;}
</style>
<path class="st0" d="M20.2,19.6c-0.8-0.8-0.8-2,0-2.8c2.3-2.3,2.3-6.1,0-8.4c-0.8-0.8-0.8-2,0-2.8c0.8-0.8,2-0.8,2.8,0
	c3.9,3.9,3.9,10.1,0,14C22.2,20.4,20.9,20.4,20.2,19.6L20.2,19.6z"/>
<path class="st0" d="M25.2,24.7c-0.8-0.8-0.8-2,0-2.8c5.1-5.1,5.1-13.4,0-18.5c-0.8-0.8-0.8-2,0-2.8c0.8-0.8,2-0.8,2.8,0
	c6.7,6.7,6.7,17.5,0,24.2C27.3,25.5,26,25.5,25.2,24.7L25.2,24.7z"/>
<polygon class="st0" points="6.5,6.5 0,6.5 0,19 6.5,19 6.5,18.8 15.7,25.3 15.7,12.7 15.7,0 6.5,6.5 "/>
</svg>
