<?xml version="1.0" encoding="utf-8"?>
<!-- Generator: Adobe Illustrator 19.0.0, SVG Export Plug-In . SVG Version: 6.00 Build 0)  -->
<!DOCTYPE svg PUBLIC "-//W3C//DTD SVG 1.1//EN" "http://www.w3.org/Graphics/SVG/1.1/DTD/svg11.dtd">
<svg version="1.1" id="Layer_1" xmlns="http://www.w3.org/2000/svg" xmlns:xlink="http://www.w3.org/1999/xlink" x="0px" y="0px"
	 viewBox="0 0 463.9 694" style="enable-background:new 0 0 463.9 694;" xml:space="preserve">
<style type="text/css">
	.st0{clip-path:url(#SVGID_2_);}
</style>
<g>
	<g>
		<defs>
			<rect id="SVGID_1_" width="463.9" height="694"/>
		</defs>
		<clipPath id="SVGID_2_">
			<use xlink:href="#SVGID_1_"  style="overflow:visible;"/>
		</clipPath>
		<path class="st0" d="M0.6,360.7c6.2,37.4,47.1,124.3,127.8,206V611h289.9v-44.2l29.3-49.2c10.5-17.5,16-37.6,16-58V309.4
			c-0.2-13-15.4-26.1-36-30.1c-16.4-3.2-31.7,0.2-39.8,7.7c-0.2-13-15.3-26.1-35.9-30.2c-14.8-3-28.8-0.5-37.4,5.6
			c-2.6-12-17.5-23.4-37.3-27.3c-17-3.4-33-0.2-41.4,7.3h-0.1v-0.1c-0.4-3.9-22.3-216.2-22.4-216.6c-4.1-37.4-65-32.6-64.9,4.6
			l-0.2,349.2c0,4.2-3,7.6-7.1,8.2H141c-0.5,0.1-0.9,0.1-1.4,0.1c-11.8-0.3-38.2-0.7-64.1-38.1c-3.4-5-6.6-9.4-9.4-13.5
			C41.8,301-6.1,320.5,0.6,360.7L0.6,360.7z M0.6,360.7"/>
	</g>
	<path d="M128.6,677.5c0,8.8,7.2,16,16,16h258c8.8,0,16-7.2,16-16v-40.9h-290V677.5z M128.6,677.5"/>
</g>
</svg>
